<svg id="visual" viewBox="0 0 900 450" width="900" height="450" xmlns="http://www.w3.org/2000/svg" xmlns:xlink="http://www.w3.org/1999/xlink" version="1.1"><path d="M0 381L18.8 382.5C37.7 384 75.3 387 112.8 388C150.3 389 187.7 388 225.2 390.5C262.7 393 300.3 399 337.8 398.8C375.3 398.7 412.7 392.3 450.2 387.7C487.7 383 525.3 380 562.8 383.3C600.3 386.7 637.7 396.3 675.2 401.2C712.7 406 750.3 406 787.8 402.3C825.3 398.7 862.7 391.3 881.3 387.7L900 384L900 451L881.3 451C862.7 451 825.3 451 787.8 451C750.3 451 712.7 451 675.2 451C637.7 451 600.3 451 562.8 451C525.3 451 487.7 451 450.2 451C412.7 451 375.3 451 337.8 451C300.3 451 262.7 451 225.2 451C187.7 451 150.3 451 112.8 451C75.3 451 37.7 451 18.8 451L0 451Z" fill="#2d223f"></path><path d="M0 403L18.8 402.3C37.7 401.7 75.3 400.3 112.8 401.2C150.3 402 187.7 405 225.2 408.3C262.7 411.7 300.3 415.3 337.8 413.7C375.3 412 412.7 405 450.2 405.5C487.7 406 525.3 414 562.8 415.5C600.3 417 637.7 412 675.2 411.2C712.7 410.3 750.3 413.7 787.8 412.8C825.3 412 862.7 407 881.3 404.5L900 402L900 451L881.3 451C862.7 451 825.3 451 787.8 451C750.3 451 712.7 451 675.2 451C637.7 451 600.3 451 562.8 451C525.3 451 487.7 451 450.2 451C412.7 451 375.3 451 337.8 451C300.3 451 262.7 451 225.2 451C187.7 451 150.3 451 112.8 451C75.3 451 37.7 451 18.8 451L0 451Z" fill="#261e35"></path><path d="M0 428L18.8 428C37.7 428 75.3 428 112.8 429.2C150.3 430.3 187.7 432.7 225.2 431.2C262.7 429.7 300.3 424.3 337.8 423.2C375.3 422 412.7 425 450.2 427.8C487.7 430.7 525.3 433.3 562.8 431.8C600.3 430.3 637.7 424.7 675.2 422.5C712.7 420.3 750.3 421.7 787.8 423C825.3 424.3 862.7 425.7 881.3 426.3L900 427L900 451L881.3 451C862.7 451 825.3 451 787.8 451C750.3 451 712.7 451 675.2 451C637.7 451 600.3 451 562.8 451C525.3 451 487.7 451 450.2 451C412.7 451 375.3 451 337.8 451C300.3 451 262.7 451 225.2 451C187.7 451 150.3 451 112.8 451C75.3 451 37.7 451 18.8 451L0 451Z" fill="#1f1a2b"></path></svg>