<svg xmlns="http://www.w3.org/2000/svg" viewBox="0 0 16 20" fill="none" x="0px" y="0px"><path fill-rule="evenodd" clip-rule="evenodd" d="M8 2C6.61929 2 5.5 3.11929 5.5 4.5H5.43111C4.38184 4.5 3.51095 5.31089 3.4362 6.35751L3.07905 11.3575C2.99636 12.5152 3.91329 13.5 5.07397 13.5H10.926C12.0867 13.5 13.0036 12.5152 12.9209 11.3575L12.5638 6.35751C12.489 5.3109 11.6182 4.5 10.5689 4.5H10.5C10.5 3.11929 9.38071 2 8 2ZM9.5 5.5V6.5C9.5 6.77614 9.72386 7 10 7C10.2761 7 10.5 6.77614 10.5 6.5V5.5H10.5689C11.0935 5.5 11.529 5.90545 11.5663 6.42875L11.9235 11.4288C11.9648 12.0076 11.5064 12.5 10.926 12.5H5.07397C4.49363 12.5 4.03516 12.0076 4.07651 11.4288L4.43366 6.42875C4.47103 5.90545 4.90648 5.5 5.43111 5.5H5.5V6.5C5.5 6.77614 5.72386 7 6 7C6.27614 7 6.5 6.77614 6.5 6.5V5.5H9.5ZM9.5 4.5C9.5 3.67157 8.82843 3 8 3C7.17157 3 6.5 3.67157 6.5 4.5H9.5Z" fill="black"/><text x="0" y="31" fill="#000000" font-size="5px" font-weight="bold" font-family="'Helvetica Neue', Helvetica, Arial-Unicode, Arial, Sans-serif">Created by Katarina Ilić</text><text x="0" y="36" fill="#000000" font-size="5px" font-weight="bold" font-family="'Helvetica Neue', Helvetica, Arial-Unicode, Arial, Sans-serif">from the Noun Project</text></svg>